HIERARCHY
ROOT Hips
{
  OFFSET 5.84602e-005 68.8428 3.50346
  CHANNELS 6 Xposition Yposition Zposition Zrotation Xrotation Yrotation
  JOINT Spine
  {
    OFFSET 0 8.597 -4.6522
    CHANNELS 3 Zrotation Xrotation Yrotation
    JOINT Spine1
    {
      OFFSET 0 7.8454 0.4098
      CHANNELS 3 Zrotation Xrotation Yrotation
      JOINT Spine2
      {
        OFFSET 0 9.7078 -2.1609
        CHANNELS 3 Zrotation Xrotation Yrotation
        JOINT Neck
        {
          OFFSET 0 21.8761 -0.4549
          CHANNELS 3 Zrotation Xrotation Yrotation
          JOINT Head
          {
            OFFSET 0 12.3537 3.3602
            CHANNELS 3 Zrotation Xrotation Yrotation
            End Site
            {
              OFFSET 0.0001 18.9506 0.5657
            }
          }
        }
        JOINT LeftShoulder
        {
          OFFSET 2.2086 21.1115 7.2329
          CHANNELS 3 Zrotation Xrotation Yrotation
          JOINT LeftArm
          {
            OFFSET 13.1193 3.0282 -4.8998
            CHANNELS 3 Zrotation Xrotation Yrotation
            JOINT LeftForeArm
            {
              OFFSET 27.4081 -0.0973053 -0.2375
              CHANNELS 3 Zrotation Xrotation Yrotation
              JOINT LeftHand
              {
                OFFSET 22.8641 0.0662994 -0.1369
                CHANNELS 3 Zrotation Xrotation Yrotation
                JOINT LeftHandIndex1
                {
                  OFFSET 8.8614 0.775009 2.4612
                  CHANNELS 3 Zrotation Xrotation Yrotation
                  JOINT LeftHandIndex2
                  {
                    OFFSET 3.3146 -0.808304 0.5841
                    CHANNELS 3 Zrotation Xrotation Yrotation
                    JOINT LeftHandIndex3
                    {
                      OFFSET 2.2628 -0.552002 0.3989
                      CHANNELS 3 Zrotation Xrotation Yrotation
                      End Site
                      {
                        OFFSET 1.6102 -0.4807 0.2612
                      }
                    }
                  }
                }
                JOINT LeftHandMiddle1
                {
                  OFFSET 8.9937 0.895004 0.2143
                  CHANNELS 3 Zrotation Xrotation Yrotation
                  JOINT LeftHandMiddle2
                  {
                    OFFSET 4.0984 0.0113983 -0.0242
                    CHANNELS 3 Zrotation Xrotation Yrotation
                    JOINT LeftHandMiddle3
                    {
                      OFFSET 2.2716 0.00689697 -0.0138001
                      CHANNELS 3 Zrotation Xrotation Yrotation
                      End Site
                      {
                        OFFSET 2.0404 -0.1441 0.0027
                      }
                    }
                  }
                }
                JOINT LeftHandRing1
                {
                  OFFSET 8.5234 0.597198 -2.0164
                  CHANNELS 3 Zrotation Xrotation Yrotation
                  JOINT LeftHandRing2
                  {
                    OFFSET 3.7188 -0.188293 -0.2328
                    CHANNELS 3 Zrotation Xrotation Yrotation
                    JOINT LeftHandRing3
                    {
                      OFFSET 2.1191 -0.106598 -0.1332
                      CHANNELS 3 Zrotation Xrotation Yrotation
                      End Site
                      {
                        OFFSET 1.8737 -0.2304 -0.0886
                      }
                    }
                  }
                }
                JOINT LeftHandPinky1
                {
                  OFFSET 7.9094 -0.601089 -3.4825
                  CHANNELS 3 Zrotation Xrotation Yrotation
                  JOINT LeftHandPinky2
                  {
                    OFFSET 2.2874 -0.477005 -0.6314
                    CHANNELS 3 Zrotation Xrotation Yrotation
                    JOINT LeftHandPinky3
                    {
                      OFFSET 1.6774 -0.349396 -0.4633
                      CHANNELS 3 Zrotation Xrotation Yrotation
                      End Site
                      {
                        OFFSET 1.4888 -0.4091 -0.3416
                      }
                    }
                  }
                }
                JOINT LeftHandThumb1
                {
                  OFFSET 1.833 -1.3875 1.3896
                  CHANNELS 3 Zrotation Xrotation Yrotation
                  JOINT LeftHandThumb2
                  {
                    OFFSET 3.4129 -1.121 2.5732
                    CHANNELS 3 Zrotation Xrotation Yrotation
                    JOINT LeftHandThumb3
                    {
                      OFFSET 2.2474 -0.804199 1.6192
                      CHANNELS 3 Zrotation Xrotation Yrotation
                      End Site
                      {
                        OFFSET 1.6527 -0.5689 1.1317
                      }
                    }
                  }
                }
              }
            }
          }
        }
        JOINT RightShoulder
        {
          OFFSET -2.2086 21.1115 7.2329
          CHANNELS 3 Zrotation Xrotation Yrotation
          JOINT RightArm
          {
            OFFSET -13.1216 3.0287 -4.9007
            CHANNELS 3 Zrotation Xrotation Yrotation
            JOINT RightForeArm
            {
              OFFSET -27.4081 -0.0973053 -0.2375
              CHANNELS 3 Zrotation Xrotation Yrotation
              JOINT RightHand
              {
                OFFSET -22.8641 0.0664063 -0.1369
                CHANNELS 3 Zrotation Xrotation Yrotation
                JOINT RightHandIndex1
                {
                  OFFSET -8.8614 0.774994 2.4612
                  CHANNELS 3 Zrotation Xrotation Yrotation
                  JOINT RightHandIndex2
                  {
                    OFFSET -3.3146 -0.808304 0.5841
                    CHANNELS 3 Zrotation Xrotation Yrotation
                    JOINT RightHandIndex3
                    {
                      OFFSET -2.2628 -0.552002 0.3989
                      CHANNELS 3 Zrotation Xrotation Yrotation
                      End Site
                      {
                        OFFSET -1.6102 -0.4807 0.2612
                      }
                    }
                  }
                }
                JOINT RightHandMiddle1
                {
                  OFFSET -8.9937 0.894989 0.2143
                  CHANNELS 3 Zrotation Xrotation Yrotation
                  JOINT RightHandMiddle2
                  {
                    OFFSET -4.0984 0.0113983 -0.0242
                    CHANNELS 3 Zrotation Xrotation Yrotation
                    JOINT RightHandMiddle3
                    {
                      OFFSET -2.2716 0.00691223 -0.0138001
                      CHANNELS 3 Zrotation Xrotation Yrotation
                      End Site
                      {
                        OFFSET -2.0404 -0.1441 0.0027
                      }
                    }
                  }
                }
                JOINT RightHandRing1
                {
                  OFFSET -8.5234 0.597198 -2.0164
                  CHANNELS 3 Zrotation Xrotation Yrotation
                  JOINT RightHandRing2
                  {
                    OFFSET -3.7188 -0.188309 -0.2328
                    CHANNELS 3 Zrotation Xrotation Yrotation
                    JOINT RightHandRing3
                    {
                      OFFSET -2.1191 -0.106598 -0.1332
                      CHANNELS 3 Zrotation Xrotation Yrotation
                      End Site
                      {
                        OFFSET -1.8737 -0.2304 -0.0886
                      }
                    }
                  }
                }
                JOINT RightHandPinky1
                {
                  OFFSET -7.9094 -0.601105 -3.4825
                  CHANNELS 3 Zrotation Xrotation Yrotation
                  JOINT RightHandPinky2
                  {
                    OFFSET -2.2874 -0.477005 -0.6314
                    CHANNELS 3 Zrotation Xrotation Yrotation
                    JOINT RightHandPinky3
                    {
                      OFFSET -1.6774 -0.349396 -0.4633
                      CHANNELS 3 Zrotation Xrotation Yrotation
                      End Site
                      {
                        OFFSET -1.4888 -0.4091 -0.3416
                      }
                    }
                  }
                }
                JOINT RightHandThumb1
                {
                  OFFSET -1.833 -1.38751 1.3896
                  CHANNELS 3 Zrotation Xrotation Yrotation
                  JOINT RightHandThumb2
                  {
                    OFFSET -3.41299 -1.12099 2.5732
                    CHANNELS 3 Zrotation Xrotation Yrotation
                    JOINT RightHandThumb3
                    {
                      OFFSET -2.24741 -0.804108 1.6192
                      CHANNELS 3 Zrotation Xrotation Yrotation
                      End Site
                      {
                        OFFSET -1.6527 -0.5689 1.1317
                      }
                    }
                  }
                }
              }
            }
          }
        }
      }
    }
  }
  JOINT RightUpLeg
  {
    OFFSET -9.1966 3.8861 -0.7581
    CHANNELS 3 Zrotation Xrotation Yrotation
    JOINT RightLeg
    {
      OFFSET -0.7359 -41.0265 0
      CHANNELS 3 Zrotation Xrotation Yrotation
      JOINT RightFoot
      {
        OFFSET 0 -40.2855 0
        CHANNELS 3 Zrotation Xrotation Yrotation
        JOINT RightToeBase
        {
          OFFSET 0 -5.6122 11.7359
          CHANNELS 3 Zrotation Xrotation Yrotation
          End Site
          {
            OFFSET 0 0 7.8731
          }
        }
      }
    }
  }
  JOINT LeftUpLeg
  {
    OFFSET 9.1965 3.8864 -0.7581
    CHANNELS 3 Zrotation Xrotation Yrotation
    JOINT LeftLeg
    {
      OFFSET 0.7359 -41.0268 0
      CHANNELS 3 Zrotation Xrotation Yrotation
      JOINT LeftFoot
      {
        OFFSET 0 -40.2855 0
        CHANNELS 3 Zrotation Xrotation Yrotation
        JOINT LeftToeBase
        {
          OFFSET 0 -5.6122 11.7359
          CHANNELS 3 Zrotation Xrotation Yrotation
          End Site
          {
            OFFSET 0 0 7.8731
          }
        }
      }
    }
  }
}
MOTION
Frames:	5
Frame Time:	0.0333333
39.7538 39.6496 18.5602 -179.995 58.9947 -0.00885826 -0.0295699 9.08996 -0.083411 -0.0464324 18.18 -0.165185 -0.0464325 18.18 -0.165185 2.88739 -0.000546935 -0.562288 -3.80501e-007 0.0604734 3.73971e-007 -12.1076 -4.17876 -4.06495 -49.7543 54.9873 2.99321 12.438 34.0288 -18.6324 2.89044 -7.67677 0.216311 1.19271e-015 -2.18663e-015 -9.54166e-015 2.38542e-015 -1.39149e-015 -0 1.59028e-015 -1.59028e-015 -0 1.19271e-015 -2.18663e-015 -9.54166e-015 -0.014644 -8.90614e-005 -9.22221e-007 2.38542e-015 1.98785e-016 1.59028e-014 1.19271e-015 -2.18663e-015 -9.54166e-015 -0.0187535 -0.00117566 6.00657e-005 -2.02185e-008 -1.35069e-007 -2.51003e-006 1.19271e-015 -2.18663e-015 -9.54166e-015 -0.0122661 -0.00324772 0.000673705 3.97569e-016 -2.18663e-015 -0 1.19271e-015 -2.18663e-015 -9.54166e-015 2.38542e-015 -1.39149e-015 -0 1.59028e-015 -1.59028e-015 -0 6.25462 -5.42554 3.24958 57.8827 54.899 -2.99972 -13.3653 33.7325 23.4114 -2.19755 -5.52694 -6.21045 7.95139e-016 -2.38542e-015 3.18055e-015 -0 -2.38542e-015 -0 1.21382e-031 -2.18663e-015 3.18055e-015 7.95139e-016 -2.38542e-015 3.18055e-015 0.0149868 -9.10331e-005 -2.35003e-007 -0 -7.95139e-016 -0 7.95139e-016 -2.38542e-015 3.18055e-015 0.018984 -0.00119037 -5.98391e-005 -2.20695e-032 1.98785e-016 6.36111e-015 7.95139e-016 -2.38542e-015 3.18055e-015 0.0122275 -0.00323679 -0.000687971 -1.19271e-015 0 3.18055e-015 7.95139e-016 -2.38542e-015 3.18055e-015 -0 -2.38542e-015 -0 1.21382e-031 -2.18663e-015 3.18055e-015 -50.7297 -73.7104 -80.858 -1.56733 34.7793 41.8154 -23.8327 -2.13389 -6.67129 1.68499e-006 -4.56024e-008 6.33946e-008 53.9192 -71.938 83.831 1.56879 34.6819 -41.8447 21.3006 -2.28733 5.4765 3.02097e-009 -3.89656e-007 2.74446e-007 
39.753 39.6496 18.5604 -179.995 58.9947 -0.00885826 -0.0293866 9.03477 -0.0834897 -0.0461232 18.0696 -0.165367 -0.0461232 18.0696 -0.165367 3.03438 0.350699 -0.599879 -7.56483e-008 0.0601742 -7.88388e-007 -12.3879 -4.01846 -3.9584 -49.5477 54.9901 3.00569 12.438 34.0288 -18.6324 2.8253 -7.55272 0.133046 7.95139e-016 1.98785e-015 -9.54166e-015 7.95139e-016 2.18663e-015 -9.54166e-015 3.97569e-016 2.18663e-015 -3.18055e-015 7.95139e-016 1.98785e-015 -9.54166e-015 -0.0145888 -8.82873e-005 5.21248e-006 -1.19271e-015 3.97569e-016 -3.18055e-015 7.95139e-016 1.98785e-015 -9.54166e-015 -0.0187664 -0.00117634 5.82673e-005 2.03396e-008 1.361e-007 2.52489e-006 7.95139e-016 1.98785e-015 -9.54166e-015 -0.0122724 -0.00324879 0.000670162 3.97569e-016 3.97569e-016 -0 7.95139e-016 1.98785e-015 -9.54166e-015 7.95139e-016 2.18663e-015 -9.54166e-015 3.97569e-016 2.18663e-015 -3.18055e-015 6.50243 -5.23606 3.15115 57.6988 54.8997 -3.00439 -13.3653 33.7325 23.4114 -2.14314 -5.40529 -6.13423 -4.65603e-008 2.98113e-007 8.63984e-009 1.25776e-007 1.72336e-007 5.12517e-009 -7.95139e-016 -9.93923e-016 -0 -4.65603e-008 2.98113e-007 8.63984e-009 0.0149988 -9.11472e-005 -4.61701e-006 3.97569e-016 5.96354e-016 6.36111e-015 -4.65603e-008 2.98113e-007 8.63984e-009 0.0190181 -0.0011922 -5.63313e-005 -6.62086e-032 5.96354e-016 6.36111e-015 -4.65603e-008 2.98113e-007 8.63984e-009 0.0122879 -0.00325322 -0.000677777 7.95139e-016 -3.97569e-016 -0 -4.65603e-008 2.98113e-007 8.63984e-009 1.25776e-007 1.72336e-007 5.12517e-009 -7.95139e-016 -9.93923e-016 -0 -50.9416 -73.6039 -81.0574 -1.56718 34.7745 41.8161 -23.701 -2.14389 -6.60914 1.66899e-006 -1.11989e-007 4.85342e-007 53.9399 -71.9246 83.8503 1.56879 34.682 -41.8446 21.3014 -2.28734 5.47651 -6.4431e-009 -3.5775e-007 4.85241e-007 
39.7522 39.6495 18.5606 -179.995 58.9947 -0.00885826 -0.0292035 8.97957 -0.0835682 -0.045815 17.9592 -0.165548 -0.0458149 17.9592 -0.165548 3.18164 0.702151 -0.638379 3.83244e-008 0.0598726 -1.7452e-007 -12.6683 -3.85863 -3.85109 -49.3412 54.9928 3.01813 12.438 34.0288 -18.6324 2.76037 -7.42858 0.0499129 -2.20695e-032 -3.97569e-016 -3.18055e-015 -3.97569e-016 1.98785e-016 -3.18055e-015 -0 0 3.18055e-015 -2.20695e-032 -3.97569e-016 -3.18055e-015 -0.014662 -8.90735e-005 6.48679e-008 7.95139e-016 1.39149e-015 -1.27222e-014 -2.20695e-032 -3.97569e-016 -3.18055e-015 -0.0187274 -0.00117372 7.08738e-005 -1.19271e-015 2.18663e-015 -3.18055e-015 -2.20695e-032 -3.97569e-016 -3.18055e-015 -0.0122711 -0.00324819 0.000674523 7.95139e-016 1.98785e-016 -0 -2.20695e-032 -3.97569e-016 -3.18055e-015 -3.97569e-016 1.98785e-016 -3.18055e-015 -0 0 3.18055e-015 6.75047 -5.04697 3.05192 57.5149 54.9004 -3.00901 -13.3653 33.7325 23.4114 -2.0889 -5.28357 -6.05813 -3.97569e-016 1.98785e-016 6.36111e-015 -3.97569e-016 -1.98785e-016 6.36111e-015 7.95139e-016 -3.97569e-016 3.18055e-015 -3.97569e-016 1.98785e-016 6.36111e-015 0.0149948 -9.10405e-005 3.21016e-006 1.19271e-015 1.98785e-016 -0 -3.97569e-016 1.98785e-016 6.36111e-015 0.0189652 -0.00118901 -6.46854e-005 -3.97569e-016 1.59028e-015 -3.18055e-015 -3.97569e-016 1.98785e-016 6.36111e-015 0.0122841 -0.0032518 -0.00067807 -3.97569e-016 0 3.18055e-015 -3.97569e-016 1.98785e-016 6.36111e-015 -3.97569e-016 -1.98785e-016 6.36111e-015 7.95139e-016 -3.97569e-016 3.18055e-015 -51.1507 -73.4973 -81.2539 -1.56701 34.7696 41.8167 -23.5693 -2.15367 -6.54696 -1.71268e-006 -4.41615e-007 2.90281e-007 53.9606 -71.9112 83.8695 1.56879 34.6822 -41.8444 21.3021 -2.28737 5.47653 -6.5102e-015 -2.38542e-015 1.59028e-015 
39.7514 39.6495 18.5608 -179.995 58.9947 -0.00885826 -0.0290205 8.9244 -0.0836457 -0.045507 17.8488 -0.165727 -0.0455069 17.8488 -0.165727 3.3292 1.05388 -0.677799 2.76854e-007 0.0595749 3.0226e-008 -12.949 -3.69932 -3.74301 -49.1346 54.9956 3.03056 12.438 34.0288 -18.6324 2.69564 -7.30435 -0.033018 -1.51251e-008 1.0172e-007 1.47434e-006 -3.97569e-016 1.19271e-015 -9.54166e-015 -1.19271e-015 1.39149e-015 -6.36111e-015 -1.51251e-008 1.0172e-007 1.47434e-006 -0.0146221 -8.89676e-005 -7.66456e-006 1.98785e-015 -1.39149e-015 3.18055e-015 -1.51251e-008 1.0172e-007 1.47434e-006 -0.0187695 -0.00117674 5.77087e-005 0 3.18055e-015 -0 -1.51251e-008 1.0172e-007 1.47434e-006 -0.0122786 -0.00325083 0.000674829 7.95139e-016 -1.78906e-015 -3.18055e-015 -1.51251e-008 1.0172e-007 1.47434e-006 -3.97569e-016 1.19271e-015 -9.54166e-015 -1.19271e-015 1.39149e-015 -6.36111e-015 6.99877 -4.85831 2.9519 57.331 54.9012 -3.01371 -13.3653 33.7325 23.4114 -2.03483 -5.16178 -5.98215 1.19271e-015 -5.96354e-016 3.18055e-015 -3.97569e-016 -3.97569e-016 9.54166e-015 -3.97569e-016 -1.98785e-016 3.18055e-015 1.19271e-015 -5.96354e-016 3.18055e-015 0.0150028 -9.07877e-005 -1.04576e-005 7.95139e-016 0 6.36111e-015 1.19271e-015 -5.96354e-016 3.18055e-015 0.0190005 -0.00119133 -5.93818e-005 3.97569e-016 9.93923e-016 9.54166e-015 1.19271e-015 -5.96354e-016 3.18055e-015 0.0122672 -0.00324657 -0.000679628 7.95139e-016 9.93923e-016 -0 1.19271e-015 -5.96354e-016 3.18055e-015 -3.97569e-016 -3.97569e-016 9.54166e-015 -3.97569e-016 -1.98785e-016 3.18055e-015 -51.3576 -73.3904 -81.4483 -1.56687 34.765 41.8174 -23.4377 -2.16343 -6.48478 4.88391e-009 -3.55152e-007 -4.87372e-007 53.9813 -71.8978 83.8887 1.5688 34.6824 -41.8443 21.3028 -2.28741 5.47656 -6.51606e-009 -3.57632e-007 4.85327e-007 
39.7506 39.6495 18.561 -179.995 58.9947 -0.00885826 -0.0288376 8.86922 -0.0837225 -0.0452001 17.7385 -0.165905 -0.0452001 17.7385 -0.165905 3.47711 1.40524 -0.718154 7.14205e-007 0.0592514 4.87741e-007 -13.23 -3.5406 -3.63419 -48.9281 54.9983 3.04295 12.438 34.0288 -18.6324 2.6311 -7.18002 -0.115829 -3.97569e-016 1.98785e-016 3.18055e-015 -0 0 3.18055e-015 -3.97569e-016 -1.98785e-016 3.18055e-015 -3.97569e-016 1.98785e-016 3.18055e-015 -0.0146103 -8.87272e-005 6.088e-006 7.95139e-016 5.96354e-016 6.36111e-015 -3.97569e-016 1.98785e-016 3.18055e-015 -0.0187463 -0.00117532 5.23889e-005 7.95139e-016 1.39149e-015 3.18055e-015 -3.97569e-016 1.98785e-016 3.18055e-015 -0.0122397 -0.00323945 0.000674668 -0 -7.95139e-016 -0 -3.97569e-016 1.98785e-016 3.18055e-015 -0 0 3.18055e-015 -3.97569e-016 -1.98785e-016 3.18055e-015 7.24731 -4.6701 2.8511 57.1471 54.9019 -3.01834 -13.3653 33.7325 23.4114 -1.98094 -5.03992 -5.90633 2.20695e-032 -3.97569e-016 3.18055e-015 4.56959e-008 -2.98245e-007 -8.67953e-009 6.62086e-032 1.19271e-015 -3.18055e-015 2.20695e-032 -3.97569e-016 3.18055e-015 0.0149889 -9.05457e-005 -4.92795e-006 3.97569e-016 -3.97569e-016 -0 2.20695e-032 -3.97569e-016 3.18055e-015 0.0189997 -0.00119128 -5.38907e-005 -3.97569e-016 -2.38542e-014 6.36111e-015 2.20695e-032 -3.97569e-016 3.18055e-015 0.0122605 -0.00324622 -0.000668723 -1.19271e-015 -1.78906e-015 -3.18055e-015 2.20695e-032 -3.97569e-016 3.18055e-015 4.56959e-008 -2.98245e-007 -8.67953e-009 6.62086e-032 1.19271e-015 -3.18055e-015 -51.5617 -73.2833 -81.6399 -1.56673 34.7603 41.8181 -23.306 -2.17301 -6.42256 8.27206e-009 3.30146e-008 -2.10634e-007 54.0021 -71.8843 83.9081 1.56881 34.6827 -41.8441 21.3036 -2.2875 5.47659 -3.47873e-016 -7.95139e-016 -0 
